<mxfile host="app.diagrams.net" modified="2024-05-24T13:09:43.156Z" agent="Mozilla/5.0 (X11; Linux x86_64; rv:126.0) Gecko/20100101 Firefox/126.0" etag="m5X6FKCkm_O-I7C2SOXA" version="24.2.7" type="device">
  <diagram id="C5RBs43oDa-KdzZeNtuy" name="Page-1">
    <mxGraphModel dx="1674" dy="758" grid="1" gridSize="10" guides="1" tooltips="1" connect="1" arrows="1" fold="1" page="1" pageScale="1" pageWidth="827" pageHeight="1169" math="0" shadow="0">
      <root>
        <mxCell id="WIyWlLk6GJQsqaUBKTNV-0" />
        <mxCell id="WIyWlLk6GJQsqaUBKTNV-1" parent="WIyWlLk6GJQsqaUBKTNV-0" />
        <mxCell id="fHMoGWg6BGGl-5doFOZJ-2" style="edgeStyle=orthogonalEdgeStyle;rounded=0;orthogonalLoop=1;jettySize=auto;html=1;exitX=0.5;exitY=1;exitDx=0;exitDy=0;entryX=0.5;entryY=0;entryDx=0;entryDy=0;" parent="WIyWlLk6GJQsqaUBKTNV-1" source="WIyWlLk6GJQsqaUBKTNV-3" target="fHMoGWg6BGGl-5doFOZJ-1" edge="1">
          <mxGeometry relative="1" as="geometry" />
        </mxCell>
        <mxCell id="WIyWlLk6GJQsqaUBKTNV-3" value="&lt;div&gt;&lt;b&gt;PESTAÑA DE COMUNIDADES (Principal)&lt;/b&gt;&lt;/div&gt;&lt;div&gt;- Listado de todas las comunidades (con CRUD)&lt;br&gt;&lt;/div&gt;" style="rounded=1;whiteSpace=wrap;html=1;fontSize=12;glass=0;strokeWidth=1;shadow=0;" parent="WIyWlLk6GJQsqaUBKTNV-1" vertex="1">
          <mxGeometry x="221" y="10" width="386" height="50" as="geometry" />
        </mxCell>
        <mxCell id="fHMoGWg6BGGl-5doFOZJ-4" value="" style="edgeStyle=orthogonalEdgeStyle;rounded=0;orthogonalLoop=1;jettySize=auto;html=1;" parent="WIyWlLk6GJQsqaUBKTNV-1" source="fHMoGWg6BGGl-5doFOZJ-1" target="fHMoGWg6BGGl-5doFOZJ-3" edge="1">
          <mxGeometry relative="1" as="geometry" />
        </mxCell>
        <mxCell id="fHMoGWg6BGGl-5doFOZJ-1" value="El usuario pincha sobre una o agrega" style="rounded=1;whiteSpace=wrap;html=1;" parent="WIyWlLk6GJQsqaUBKTNV-1" vertex="1">
          <mxGeometry x="354" y="100" width="120" height="60" as="geometry" />
        </mxCell>
        <mxCell id="fHMoGWg6BGGl-5doFOZJ-7" style="edgeStyle=orthogonalEdgeStyle;rounded=0;orthogonalLoop=1;jettySize=auto;html=1;exitX=0.5;exitY=1;exitDx=0;exitDy=0;entryX=0.5;entryY=0;entryDx=0;entryDy=0;" parent="WIyWlLk6GJQsqaUBKTNV-1" source="fHMoGWg6BGGl-5doFOZJ-3" target="fHMoGWg6BGGl-5doFOZJ-6" edge="1">
          <mxGeometry relative="1" as="geometry" />
        </mxCell>
        <mxCell id="fHMoGWg6BGGl-5doFOZJ-3" value="&lt;div&gt;&lt;b&gt;PESTAÑA DE&lt;/b&gt; &lt;b&gt;ESA COMUNIDAD&lt;/b&gt;&lt;/div&gt;&lt;div&gt;- Gráfico de ingresos y gastos (con CRUD)&lt;br&gt;&lt;/div&gt;&lt;div&gt;- Acceso a contratos&lt;br&gt;&lt;/div&gt;&lt;div&gt;- Acceso a deudas&lt;br&gt;&lt;/div&gt;&lt;div&gt;- Acceso a locales&lt;br&gt;&lt;/div&gt;&lt;div&gt;- Acceso a bloques&lt;br&gt;&lt;/div&gt;" style="whiteSpace=wrap;html=1;rounded=1;" parent="WIyWlLk6GJQsqaUBKTNV-1" vertex="1">
          <mxGeometry x="184" y="210" width="460" height="100" as="geometry" />
        </mxCell>
        <mxCell id="fHMoGWg6BGGl-5doFOZJ-9" value="" style="edgeStyle=orthogonalEdgeStyle;rounded=0;orthogonalLoop=1;jettySize=auto;html=1;" parent="WIyWlLk6GJQsqaUBKTNV-1" source="fHMoGWg6BGGl-5doFOZJ-6" target="fHMoGWg6BGGl-5doFOZJ-8" edge="1">
          <mxGeometry relative="1" as="geometry" />
        </mxCell>
        <mxCell id="fHMoGWg6BGGl-5doFOZJ-15" value="" style="edgeStyle=orthogonalEdgeStyle;rounded=0;orthogonalLoop=1;jettySize=auto;html=1;" parent="WIyWlLk6GJQsqaUBKTNV-1" source="fHMoGWg6BGGl-5doFOZJ-6" target="fHMoGWg6BGGl-5doFOZJ-14" edge="1">
          <mxGeometry relative="1" as="geometry" />
        </mxCell>
        <mxCell id="fHMoGWg6BGGl-5doFOZJ-27" style="edgeStyle=orthogonalEdgeStyle;rounded=0;orthogonalLoop=1;jettySize=auto;html=1;exitX=0;exitY=0.75;exitDx=0;exitDy=0;entryX=0.5;entryY=0;entryDx=0;entryDy=0;" parent="WIyWlLk6GJQsqaUBKTNV-1" source="fHMoGWg6BGGl-5doFOZJ-6" target="fHMoGWg6BGGl-5doFOZJ-25" edge="1">
          <mxGeometry relative="1" as="geometry" />
        </mxCell>
        <mxCell id="fHMoGWg6BGGl-5doFOZJ-31" style="edgeStyle=orthogonalEdgeStyle;rounded=0;orthogonalLoop=1;jettySize=auto;html=1;exitX=1;exitY=0.75;exitDx=0;exitDy=0;entryX=0.5;entryY=0;entryDx=0;entryDy=0;" parent="WIyWlLk6GJQsqaUBKTNV-1" source="fHMoGWg6BGGl-5doFOZJ-6" target="fHMoGWg6BGGl-5doFOZJ-30" edge="1">
          <mxGeometry relative="1" as="geometry" />
        </mxCell>
        <mxCell id="fHMoGWg6BGGl-5doFOZJ-6" value="&lt;b&gt;ACCIÓN DEL USUARIO&lt;br&gt;&lt;/b&gt;" style="shape=hexagon;perimeter=hexagonPerimeter2;whiteSpace=wrap;html=1;fixedSize=1;" parent="WIyWlLk6GJQsqaUBKTNV-1" vertex="1">
          <mxGeometry x="354" y="360" width="120" height="80" as="geometry" />
        </mxCell>
        <mxCell id="fHMoGWg6BGGl-5doFOZJ-11" value="" style="edgeStyle=orthogonalEdgeStyle;rounded=0;orthogonalLoop=1;jettySize=auto;html=1;" parent="WIyWlLk6GJQsqaUBKTNV-1" source="fHMoGWg6BGGl-5doFOZJ-8" target="fHMoGWg6BGGl-5doFOZJ-10" edge="1">
          <mxGeometry relative="1" as="geometry" />
        </mxCell>
        <mxCell id="fHMoGWg6BGGl-5doFOZJ-8" value="Pincha en los contratos" style="whiteSpace=wrap;html=1;" parent="WIyWlLk6GJQsqaUBKTNV-1" vertex="1">
          <mxGeometry x="64" y="480" width="120" height="60" as="geometry" />
        </mxCell>
        <mxCell id="fHMoGWg6BGGl-5doFOZJ-10" value="&lt;div&gt;&lt;b&gt;PESTAÑA DE CONTRATOS&lt;/b&gt;&lt;/div&gt;&lt;div&gt;- Listado de contratos&lt;/div&gt;&lt;div&gt;- Listado de contratantes&lt;/div&gt;&lt;div&gt;(TODO CON POSIBILIDAD DE HACER CRUD)&lt;br&gt;&lt;/div&gt;" style="whiteSpace=wrap;html=1;" parent="WIyWlLk6GJQsqaUBKTNV-1" vertex="1">
          <mxGeometry x="14" y="580" width="220" height="85" as="geometry" />
        </mxCell>
        <mxCell id="fHMoGWg6BGGl-5doFOZJ-17" value="" style="edgeStyle=orthogonalEdgeStyle;rounded=0;orthogonalLoop=1;jettySize=auto;html=1;" parent="WIyWlLk6GJQsqaUBKTNV-1" source="fHMoGWg6BGGl-5doFOZJ-14" target="fHMoGWg6BGGl-5doFOZJ-16" edge="1">
          <mxGeometry relative="1" as="geometry" />
        </mxCell>
        <mxCell id="fHMoGWg6BGGl-5doFOZJ-14" value="Pincha en un bloque" style="whiteSpace=wrap;html=1;" parent="WIyWlLk6GJQsqaUBKTNV-1" vertex="1">
          <mxGeometry x="920" y="470" width="120" height="60" as="geometry" />
        </mxCell>
        <mxCell id="fHMoGWg6BGGl-5doFOZJ-36" style="edgeStyle=orthogonalEdgeStyle;rounded=0;orthogonalLoop=1;jettySize=auto;html=1;exitX=0.5;exitY=1;exitDx=0;exitDy=0;" parent="WIyWlLk6GJQsqaUBKTNV-1" source="fHMoGWg6BGGl-5doFOZJ-16" target="fHMoGWg6BGGl-5doFOZJ-35" edge="1">
          <mxGeometry relative="1" as="geometry" />
        </mxCell>
        <mxCell id="fHMoGWg6BGGl-5doFOZJ-16" value="&lt;div&gt;&lt;b&gt;PESTAÑA DE BLOQUES&lt;/b&gt;&lt;/div&gt;&lt;div&gt;- Listado de viviendas (con CRUD)&lt;br&gt;&lt;/div&gt;&lt;div&gt;- Acceso a mensualidades&lt;br&gt;&lt;/div&gt;&lt;div&gt;- Acceso a vecinos&lt;br&gt;&lt;/div&gt;&lt;div&gt;- Acceso a reuniones&lt;/div&gt;" style="whiteSpace=wrap;html=1;" parent="WIyWlLk6GJQsqaUBKTNV-1" vertex="1">
          <mxGeometry x="810" y="578.75" width="340" height="87.5" as="geometry" />
        </mxCell>
        <mxCell id="fHMoGWg6BGGl-5doFOZJ-34" style="edgeStyle=orthogonalEdgeStyle;rounded=0;orthogonalLoop=1;jettySize=auto;html=1;exitX=0.5;exitY=1;exitDx=0;exitDy=0;" parent="WIyWlLk6GJQsqaUBKTNV-1" source="fHMoGWg6BGGl-5doFOZJ-25" target="fHMoGWg6BGGl-5doFOZJ-28" edge="1">
          <mxGeometry relative="1" as="geometry" />
        </mxCell>
        <mxCell id="fHMoGWg6BGGl-5doFOZJ-25" value="Pincha en las deudas" style="rounded=0;whiteSpace=wrap;html=1;" parent="WIyWlLk6GJQsqaUBKTNV-1" vertex="1">
          <mxGeometry x="320" y="480" width="120" height="60" as="geometry" />
        </mxCell>
        <mxCell id="fHMoGWg6BGGl-5doFOZJ-28" value="&lt;div&gt;&lt;b&gt;PESTAÑA DE DEUDAS&lt;/b&gt;&lt;/div&gt;&lt;div&gt;- Listado de deudas&lt;br&gt;&lt;/div&gt;&lt;div&gt;- Listado de tipos de deudas&lt;br&gt;&lt;/div&gt;&lt;div&gt;(TODO CON POSIBILIDAD DE HACER CRUD)&lt;br&gt;&lt;/div&gt;" style="whiteSpace=wrap;html=1;" parent="WIyWlLk6GJQsqaUBKTNV-1" vertex="1">
          <mxGeometry x="270" y="580" width="220" height="85" as="geometry" />
        </mxCell>
        <mxCell id="fHMoGWg6BGGl-5doFOZJ-33" style="edgeStyle=orthogonalEdgeStyle;rounded=0;orthogonalLoop=1;jettySize=auto;html=1;entryX=0.5;entryY=0;entryDx=0;entryDy=0;" parent="WIyWlLk6GJQsqaUBKTNV-1" source="fHMoGWg6BGGl-5doFOZJ-30" target="fHMoGWg6BGGl-5doFOZJ-32" edge="1">
          <mxGeometry relative="1" as="geometry" />
        </mxCell>
        <mxCell id="fHMoGWg6BGGl-5doFOZJ-30" value="Pincha en los locales" style="rounded=0;whiteSpace=wrap;html=1;" parent="WIyWlLk6GJQsqaUBKTNV-1" vertex="1">
          <mxGeometry x="560" y="480" width="120" height="60" as="geometry" />
        </mxCell>
        <mxCell id="fHMoGWg6BGGl-5doFOZJ-32" value="&lt;div&gt;&lt;b&gt;PESTAÑA DE LOCALES&lt;br&gt;&lt;/b&gt;&lt;/div&gt;&lt;div&gt;- Listado de locales&lt;br&gt;&lt;/div&gt;&lt;div&gt;- Listado de tipos de locales&lt;br&gt;&lt;/div&gt;&lt;div&gt;(TODO CON POSIBILIDAD DE HACER CRUD)&lt;br&gt;&lt;/div&gt;" style="whiteSpace=wrap;html=1;" parent="WIyWlLk6GJQsqaUBKTNV-1" vertex="1">
          <mxGeometry x="510" y="580" width="220" height="85" as="geometry" />
        </mxCell>
        <mxCell id="fHMoGWg6BGGl-5doFOZJ-38" value="" style="edgeStyle=orthogonalEdgeStyle;rounded=0;orthogonalLoop=1;jettySize=auto;html=1;" parent="WIyWlLk6GJQsqaUBKTNV-1" source="fHMoGWg6BGGl-5doFOZJ-35" target="fHMoGWg6BGGl-5doFOZJ-37" edge="1">
          <mxGeometry relative="1" as="geometry" />
        </mxCell>
        <mxCell id="fHMoGWg6BGGl-5doFOZJ-45" value="" style="edgeStyle=orthogonalEdgeStyle;rounded=0;orthogonalLoop=1;jettySize=auto;html=1;" parent="WIyWlLk6GJQsqaUBKTNV-1" source="fHMoGWg6BGGl-5doFOZJ-35" target="fHMoGWg6BGGl-5doFOZJ-44" edge="1">
          <mxGeometry relative="1" as="geometry" />
        </mxCell>
        <mxCell id="fHMoGWg6BGGl-5doFOZJ-35" value="&lt;b&gt;ACCIÓN DEL USUARIO&lt;/b&gt;" style="shape=hexagon;perimeter=hexagonPerimeter2;whiteSpace=wrap;html=1;fixedSize=1;" parent="WIyWlLk6GJQsqaUBKTNV-1" vertex="1">
          <mxGeometry x="354" y="780" width="120" height="80" as="geometry" />
        </mxCell>
        <mxCell id="fHMoGWg6BGGl-5doFOZJ-40" value="" style="edgeStyle=orthogonalEdgeStyle;rounded=0;orthogonalLoop=1;jettySize=auto;html=1;" parent="WIyWlLk6GJQsqaUBKTNV-1" source="fHMoGWg6BGGl-5doFOZJ-37" target="fHMoGWg6BGGl-5doFOZJ-39" edge="1">
          <mxGeometry relative="1" as="geometry" />
        </mxCell>
        <mxCell id="fHMoGWg6BGGl-5doFOZJ-37" value="Pincha en las mensualidades" style="whiteSpace=wrap;html=1;" parent="WIyWlLk6GJQsqaUBKTNV-1" vertex="1">
          <mxGeometry x="137" y="880" width="120" height="60" as="geometry" />
        </mxCell>
        <mxCell id="fHMoGWg6BGGl-5doFOZJ-39" value="&lt;div&gt;&lt;b&gt;PESTAÑA DE MENSUALIDADES&lt;/b&gt;&lt;/div&gt;&lt;div&gt;-Listado de mensualidades&lt;/div&gt;&lt;div&gt;- Listado de vecinos&lt;/div&gt;&lt;div&gt;(TODO CON POSIBILIDAD DE HACER CRUD)&lt;br&gt;&lt;/div&gt;" style="whiteSpace=wrap;html=1;" parent="WIyWlLk6GJQsqaUBKTNV-1" vertex="1">
          <mxGeometry x="64" y="990" width="266" height="80" as="geometry" />
        </mxCell>
        <mxCell id="fHMoGWg6BGGl-5doFOZJ-47" style="edgeStyle=orthogonalEdgeStyle;rounded=0;orthogonalLoop=1;jettySize=auto;html=1;exitX=0.5;exitY=1;exitDx=0;exitDy=0;entryX=0.5;entryY=0;entryDx=0;entryDy=0;" parent="WIyWlLk6GJQsqaUBKTNV-1" source="fHMoGWg6BGGl-5doFOZJ-44" target="fHMoGWg6BGGl-5doFOZJ-46" edge="1">
          <mxGeometry relative="1" as="geometry" />
        </mxCell>
        <mxCell id="fHMoGWg6BGGl-5doFOZJ-44" value="Pincha en las reuniones" style="whiteSpace=wrap;html=1;" parent="WIyWlLk6GJQsqaUBKTNV-1" vertex="1">
          <mxGeometry x="560" y="880" width="120" height="60" as="geometry" />
        </mxCell>
        <mxCell id="fHMoGWg6BGGl-5doFOZJ-46" value="&lt;div&gt;&lt;b&gt;PESTAÑA DE REUNIONES&lt;br&gt;&lt;/b&gt;&lt;/div&gt;&lt;div&gt;- Listado de reuniones&lt;br&gt;&lt;/div&gt;&lt;div&gt;- Listado de tipos de reuniones&lt;br&gt;&lt;/div&gt;&lt;div&gt;(TODO CON POSIBILIDAD DE HACER CRUD)&lt;br&gt;&lt;/div&gt;" style="whiteSpace=wrap;html=1;" parent="WIyWlLk6GJQsqaUBKTNV-1" vertex="1">
          <mxGeometry x="510" y="990" width="220" height="80" as="geometry" />
        </mxCell>
      </root>
    </mxGraphModel>
  </diagram>
</mxfile>
